<svg version="1.1" xmlns="http://www.w3.org/2000/svg" xmlns:xlink="http://www.w3.org/1999/xlink" width="460.26055" height="266.3108" viewBox="0,0,460.26055,266.3108"><g transform="translate(-9.5868,-52.37493)"><g stroke="#000000" stroke-width="1.5"><path d="M78.59914,261.28033c7.19954,0 14.39911,0 21.59865,0c6.58079,1.27787 10.70418,5.20488 12.37014,11.78109c1.27216,4.97228 1.27216,9.94653 0,14.92271c-2.00345,6.13072 -6.12683,9.79593 -12.37014,10.99568c-7.19954,0 -14.39911,0 -21.59865,0c0,-12.56649 0,-25.13299 0,-37.69948zM90.38022,269.91979c3.02322,-0.0485 5.90303,0.54055 8.63946,1.76716c1.80085,2.6476 2.58627,5.59287 2.35622,8.83581c0.2776,3.13714 -0.50781,5.95153 -2.35622,8.44311c-2.74801,1.18435 -5.62786,1.64248 -8.63946,1.37446c0,-6.80683 0,-13.61371 0,-20.42054z" fill="#00798e" fill-rule="evenodd" stroke-miterlimit="10" opacity="0.977"/><path d="M119.04753,261.28033c10.4722,0 20.94402,0 31.41623,0c0,2.74892 0,5.49784 0,8.24676c-6.54518,0 -13.08997,0 -19.63514,0c0,1.96351 0,3.92703 0,5.89055c6.02131,0 12.04302,0 18.06433,0c0,2.61803 0,5.23602 0,7.85405c-6.02131,0 -12.04302,0 -18.06433,0c0,2.35622 0,4.71243 0,7.06865c6.67595,0 13.3519,0 20.02785,0c0,2.87981 0,5.75966 0,8.63947c-10.60297,0 -21.20596,0 -31.80893,0c0,-12.56649 0,-25.13299 0,-37.69948z" fill="#00798e" fill-rule="evenodd" stroke-miterlimit="10" opacity="0.976"/><path d="M166.95727,261.28033c4.31973,0 8.63947,0 12.95919,0c4.78979,12.53605 9.50223,25.10255 14.1373,37.69948c-4.18896,0 -8.37753,0 -12.56649,0c-0.50344,-2.07948 -1.15808,-4.10846 -1.96351,-6.0869c-4.19485,-0.32689 -8.38381,-0.26143 -12.5665,0.19635c-0.68605,1.92648 -1.20991,3.89 -1.57081,5.89055c-4.18896,0 -8.37753,0 -12.56649,0c4.78979,-12.53605 9.50223,-25.10255 14.1373,-37.69948zM173.24052,271.88331c1.29435,4.01551 2.60322,8.07342 3.92702,12.17379c-2.47324,0.39125 -4.96062,0.52218 -7.46135,0.3927c1.17811,-4.18857 2.35622,-8.37737 3.53433,-12.56649z" fill="#00798e" fill-rule="evenodd" stroke-miterlimit="10" opacity="0.98"/><path d="M197.5881,261.28033c8.37753,0 16.75545,0 25.13298,0c7.01171,1.86722 9.82581,6.44877 8.44311,13.7446c-1.27118,3.75793 -3.82375,6.17962 -7.6577,7.26501c2.01024,1.09371 3.64664,2.59906 4.90878,4.51608c2.03931,4.07877 4.0684,8.13673 6.08689,12.17379c-4.58166,0 -9.16294,0 -13.7446,0c-2.18028,-4.49115 -4.47092,-8.94181 -6.8723,-13.3519c-1.1031,-1.20438 -2.47756,-1.85886 -4.12338,-1.96351c-0.39231,5.09842 -0.52307,10.20356 -0.3927,15.31541c-3.92703,0 -7.85405,0 -11.78108,0c0,-12.56649 0,-25.13299 0,-37.69948zM209.36918,269.13439c2.49052,-0.06527 4.97751,0.0002 7.46135,0.19635c2.8526,1.1628 3.44164,3.06084 1.76716,5.69419c-0.29452,0.24575 -0.62204,0.44211 -0.98175,0.58906c-2.71397,0.54366 -5.46289,0.74001 -8.24676,0.58905c0,-2.35622 0,-4.71243 0,-7.06865z" fill="#00798e" fill-rule="evenodd" stroke-miterlimit="10" opacity="0.981"/><path d="M251.38838,261.28033c3.79626,0 7.59212,0 11.38839,0c1.16672,6.68529 2.41041,13.36124 3.73067,20.02785c1.83078,-6.66892 3.59794,-13.34487 5.30149,-20.02785c3.92703,0 7.85406,0 11.78109,0c1.58102,6.71699 3.34819,13.39294 5.30149,20.02785c1.24448,-6.6811 2.48777,-13.35704 3.73068,-20.02785c3.79626,0 7.59212,0 11.38838,0c-2.74892,12.56649 -5.49784,25.13299 -8.24676,37.69948c-3.92703,0 -7.85406,0 -11.78109,0c-1.98001,-7.52952 -4.13987,-14.99089 -6.4796,-22.38407c-1.9694,7.48578 -3.9985,14.94714 -6.0869,22.38407c-3.92703,0 -7.85406,0 -11.78109,0c-2.74852,-12.56484 -5.49744,-25.13134 -8.24676,-37.69948z" fill="#00798e" fill-rule="evenodd" stroke-miterlimit="10" opacity="0.977"/><path d="M307.93759,261.28033c3.92703,0 7.85406,0 11.78109,0c0,12.56649 0,25.13299 0,37.69948c-3.92703,0 -7.85406,0 -11.78109,0c0,-12.56649 0,-25.13299 0,-37.69948z" fill="#007a8d" fill-rule="evenodd" stroke-miterlimit="10" opacity="0.98"/><path d="M325.21652,261.28033c11.78109,0 23.56217,0 35.34326,0c0,3.14162 0,6.28325 0,9.42487c-3.92703,0 -7.85406,0 -11.78109,0c0,9.42487 0,18.84974 0,28.27461c-3.92703,0 -7.85406,0 -11.78109,0c0,-9.42487 0,-18.84974 0,-28.27461c-3.92703,0 -7.85405,0 -11.78108,0c0,-3.14162 0,-6.28325 0,-9.42487z" fill="#00798e" fill-rule="evenodd" stroke-miterlimit="10" opacity="0.979"/><path d="M365.27221,261.28033c3.92703,0 7.85406,0 11.78109,0c0,4.31973 0,8.63947 0,12.9592c4.18896,0 8.37753,0 12.56649,0c0,-4.31973 0,-8.63947 0,-12.9592c3.92703,0 7.85406,0 11.78109,0c0,12.56649 0,25.13299 0,37.69948c-3.92703,0 -7.85406,0 -11.78109,0c0,-5.10514 0,-10.21027 0,-15.31541c-4.18896,0 -8.37753,0 -12.56649,0c0,5.10514 0,10.21027 0,15.31541c-3.92703,0 -7.85406,0 -11.78109,0c0,-12.56649 0,-25.13299 0,-37.69948z" fill="#00798e" fill-rule="evenodd" stroke-miterlimit="10" opacity="0.98"/><path d="M37.66766,158.55607h20.25559l40.23388,62.99779h-15.8818z" fill="#007a8e" fill-rule="nonzero" stroke-miterlimit="10"/><path d="M37.66766,158.55607h20.25559l40.23388,62.99779h-15.8818z" fill="none" fill-rule="nonzero" stroke-miterlimit="10"/><path d="M65.56952,158.55607c0,0 16.24103,-0.10084 16.24103,0c0,0.11029 25.53062,28.72273 25.53062,28.82672c0,0.10714 -13.843,-28.78891 -13.843,-28.78891h20.6747c0,0 27.89083,62.95998 27.78684,62.95998h-11.27481l-23.34372,-24.69871l13.07727,24.69871h-16.5845z" fill="#007a8e" fill-rule="nonzero" stroke-miterlimit="10"/><path d="M65.56952,158.55607c0,0 16.24103,-0.10084 16.24103,0c0,0.11029 25.53062,28.72273 25.53062,28.82672c0,0.10714 -13.843,-28.78891 -13.843,-28.78891h20.6747c0,0 27.89083,62.95998 27.78684,62.95998h-11.27481l-23.34372,-24.69871l13.07727,24.69871h-16.5845z" fill="none" fill-rule="nonzero" stroke-miterlimit="10"/><path d="M119.64987,158.55607h21.06229l23.58951,47.17903l-8.87994,-47.17902h22.22821l6.07542,62.99779h-28.20594z" fill="#007a8e" fill-rule="nonzero" stroke-miterlimit="10"/><path d="M119.64987,158.55607h21.06229l23.58951,47.17903l-8.87994,-47.17902h22.22821l6.07542,62.99779h-28.20594z" fill="none" fill-rule="nonzero" stroke-miterlimit="10"/><path d="M294.45267,158.59324h45.10241l-3.85386,11.58678h-22.24082l-3.88537,15.54147h17.65904l-2.39172,7.56277h-17.20843l-5.2057,20.70936h18.73044l-2.53037,7.52495h-35.20465z" fill="#007a8e" fill-rule="nonzero" stroke-miterlimit="10"/><path d="M294.45267,158.59324h45.10241l-3.85386,11.58678h-22.24082l-3.88537,15.54147h17.65904l-2.39172,7.56277h-17.20843l-5.2057,20.70936h18.73044l-2.53037,7.52495h-35.20465z" fill="none" fill-rule="nonzero" stroke-miterlimit="10"/><path d="M369.08009,170.16081h-6.55439l-8.57743,20.03502h6.0313zM345.90023,158.59295h38.22345l8.54907,11.17712l-12.15399,18.62016l-12.53212,5.65315l6.49452,5.86429l-11.37565,21.61059h-17.20528l9.91667,-21.88474h-5.86114l-9.43454,21.88474h-16.8618z" fill="#007a8e" fill-rule="nonzero" stroke-miterlimit="10"/><path d="M369.08009,170.16081h-6.55439l-8.57743,20.03502h6.0313zM345.90023,158.59295h38.22345l8.54907,11.17712l-12.15399,18.62016l-12.53212,5.65315l6.49452,5.86429l-11.37565,21.61059h-17.20528l9.91667,-21.88474h-5.86114l-9.43454,21.88474h-16.8618z" fill="none" fill-rule="nonzero" stroke-miterlimit="10"/><path d="M447.70791,166.84645l-11.55212,16.20636h-19.11488l6.89787,-10.74227h-5.6185l-9.98284,16.14964h13.29155l5.05444,7.8054c0,0 -12.58569,17.83236 -12.69598,17.83236c-0.09769,0 -13.59721,7.42096 -13.59721,7.42096h-20.43206l-5.41052,-6.80018l5.30969,-9.60471h18.62645l-4.85592,7.76758h4.15637l8.53962,-13.2821h-12.56048l-5.92731,-9.0564l12.38402,-22.58429l16.78933,-9.43454h26.19236z" fill="#007a8e" fill-rule="nonzero" stroke-miterlimit="10"/><path d="M447.70791,166.84645l-11.55212,16.20636h-19.11488l6.89787,-10.74227h-5.6185l-9.98284,16.14964h13.29155l5.05444,7.8054c0,0 -12.58569,17.83236 -12.69598,17.83236c-0.09769,0 -13.59721,7.42096 -13.59721,7.42096h-20.43206l-5.41052,-6.80018l5.30969,-9.60471h18.62645l-4.85592,7.76758h4.15637l8.53962,-13.2821h-12.56048l-5.92731,-9.0564l12.38402,-22.58429l16.78933,-9.43454h26.19236z" fill="none" fill-rule="nonzero" stroke-miterlimit="10"/><path d="M208.18364,182.21428v21.75554h5.99349zM189.86916,158.52393h30.28255l13.52474,63.02615h-14.94906l-2.81398,-9.70869h-7.69826v9.70869h-16.09607z" fill="#007a8e" fill-rule="nonzero" stroke-miterlimit="10"/><path d="M208.18364,182.21428v21.75554h5.99349zM189.86916,158.52393h30.28255l13.52474,63.02615h-14.94906l-2.81398,-9.70869h-7.69826v9.70869h-16.09607z" fill="none" fill-rule="nonzero" stroke-miterlimit="10"/><path d="M254.77087,214.02771h5.44519l3.12279,-43.84825h-6.42204zM236.90385,158.55488h35.66156c0,0 12.31154,10.58155 12.31154,10.68554c0,0.10084 -6.72771,45.33876 -6.72771,45.33876l-9.50702,6.93883h-30.31721z" fill="#007a8e" fill-rule="nonzero" stroke-miterlimit="10"/><path d="M254.77087,214.02771h5.44519l3.12279,-43.84825h-6.42204zM236.90385,158.55488h35.66156c0,0 12.31154,10.58155 12.31154,10.68554c0,0.10084 -6.72771,45.33876 -6.72771,45.33876l-9.50702,6.93883h-30.31721z" fill="none" fill-rule="nonzero" stroke-miterlimit="10"/><path d="M118.06831,53.12493h24.68611l15.22005,12.73065l4.12486,18.78401h-21.20094l-4.05238,-14.15497h-4.54711l5.96828,21.04653h15.36816l12.16029,10.24754l4.69836,21.41206l-8.89255,10.17191h-21.19779l-11.95231,-8.82007l-3.91373,-10.95655h20.20517l1.99153,6.90102h4.19733l-4.12801,-14.15812h-14.93645l-14.87028,-14.23059l-8.81692,-24.67981z" fill="#007a8e" fill-rule="nonzero" stroke-miterlimit="10"/><path d="M118.06831,53.12493h24.68611l15.22005,12.73065l4.12486,18.78401h-21.20094l-4.05238,-14.15497h-4.54711l5.96828,21.04653h15.36816l12.16029,10.24754l4.69836,21.41206l-8.89255,10.17191h-21.19779l-11.95231,-8.82007l-3.91373,-10.95655h20.20517l1.99153,6.90102h4.19733l-4.12801,-14.15812h-14.93645l-14.87028,-14.23059l-8.81692,-24.67981z" fill="none" fill-rule="nonzero" stroke-miterlimit="10"/><path d="M191.30797,97.01031h4.84017l-3.48832,-26.59886h-5.12062zM162.35521,53.19357h37.85161l14.7915,13.16235l2.27513,32.00938l-9.74651,13.65394h-14.72217l3.62697,21.34274h-18.06554z" fill="#007a8e" fill-rule="nonzero" stroke-miterlimit="10"/><path d="M191.30797,97.01031h4.84017l-3.48832,-26.59886h-5.12062zM162.35521,53.19357h37.85161l14.7915,13.16235l2.27513,32.00938l-9.74651,13.65394h-14.72217l3.62697,21.34274h-18.06554z" fill="none" fill-rule="nonzero" stroke-miterlimit="10"/><path d="M240.42148,108.36552h5.91471c0,0 -2.56819,-32.36861 -2.77931,-32.36861zM228.40615,53.58909h30.94114l6.75607,80.23773h-17.60232l-1.21004,-12.13508h-7.90308l-1.30458,12.13508h-17.64644z" fill="#007a8e" fill-rule="nonzero" stroke-miterlimit="10"/><path d="M240.42148,108.36552h5.91471c0,0 -2.56819,-32.36861 -2.77931,-32.36861zM228.40615,53.58909h30.94114l6.75607,80.23773h-17.60232l-1.21004,-12.13508h-7.90308l-1.30458,12.13508h-17.64644z" fill="none" fill-rule="nonzero" stroke-miterlimit="10"/><path d="M291.26464,53.16181h24.12205l11.5206,14.82931l-4.13431,16.64753h-20.62113l2.42008,-14.72848h-6.18571l-7.50919,50.64843h5.30023l2.95263,-17.71261h20.05707l-4.44942,19.95308l-12.62666,10.59417h-21.08119l-9.35576,-11.59623l4.94415,-55.54847z" fill="#007a8e" fill-rule="nonzero" stroke-miterlimit="10"/><path d="M291.26464,53.16181h24.12205l11.5206,14.82931l-4.13431,16.64753h-20.62113l2.42008,-14.72848h-6.18571l-7.50919,50.64843h5.30023l2.95263,-17.71261h20.05707l-4.44942,19.95308l-12.62666,10.59417h-21.08119l-9.35576,-11.59623l4.94415,-55.54847z" fill="none" fill-rule="nonzero" stroke-miterlimit="10"/><path d="M338.50102,53.16181h46.47946l-6.00609,16.78618h-22.72294l-4.81181,15.82508h15.33665l-5.05129,14.79466h-14.12345l-6.27709,21.71773h17.54875l-3.80974,12.83779h-36.74556z" fill="#007a8e" fill-rule="nonzero" stroke-miterlimit="10"/><path d="M338.50102,53.16181h46.47946l-6.00609,16.78618h-22.72294l-4.81181,15.82508h15.33665l-5.05129,14.79466h-14.12345l-6.27709,21.71773h17.54875l-3.80974,12.83779h-36.74556z" fill="none" fill-rule="nonzero" stroke-miterlimit="10"/><path d="M24.74606,169.73292h21.54126l42.78316,66.97454h-18.76195z" fill="#777cbb" fill-rule="nonzero" stroke-miterlimit="10"/><path d="M24.74606,169.73292h21.54126l42.78316,66.97454h-18.76195z" fill="none" fill-rule="nonzero" stroke-miterlimit="10"/><path d="M55.13449,169.73292c0,0 17.262,-0.11029 17.262,0c0,0.10714 27.14085,30.53149 27.14085,30.64808c0,0.11344 -14.71587,-30.61027 -14.71587,-30.61027h21.98242c0,0 29.65862,66.93673 29.54203,66.93673h-11.98067l-24.82791,-26.25853l13.90918,26.25853h-17.63384z" fill="#777cbb" fill-rule="nonzero" stroke-miterlimit="10"/><path d="M55.13449,169.73292c0,0 17.262,-0.11029 17.262,0c0,0.10714 27.14085,30.53149 27.14085,30.64808c0,0.11344 -14.71587,-30.61027 -14.71587,-30.61027h21.98242c0,0 29.65862,66.93673 29.54203,66.93673h-11.98067l-24.82791,-26.25853l13.90918,26.25853h-17.63384z" fill="none" fill-rule="nonzero" stroke-miterlimit="10"/><path d="M111.63682,169.73292h22.38892l25.07685,50.16001l-9.43769,-50.16001h23.63993l6.45671,66.97454h-29.98319z" fill="#777cbb" fill-rule="nonzero" stroke-miterlimit="10"/><path d="M111.63682,169.73292h22.38892l25.07685,50.16001l-9.43769,-50.16001h23.63993l6.45671,66.97454h-29.98319z" fill="none" fill-rule="nonzero" stroke-miterlimit="10"/><path d="M297.48688,169.76976h47.94475l-4.08704,12.31469h-23.64623l-4.75509,18.39641h19.71044l-4.14061,10.38304h-18.29873l-4.24775,17.804h19.91842l-2.69108,8.00077h-37.43881z" fill="#777cbb" fill-rule="nonzero" stroke-miterlimit="10"/><path d="M297.48688,169.76976h47.94475l-4.08704,12.31469h-23.64623l-4.75509,18.39641h19.71044l-4.14061,10.38304h-18.29873l-4.24775,17.804h19.91842l-2.69108,8.00077h-37.43881z" fill="none" fill-rule="nonzero" stroke-miterlimit="10"/><path d="M377.04116,181.56517h-6.96719l-9.33056,21.80281h6.41889zM352.18804,169.77041h40.48598l7.63209,10.695l-11.31263,20.98666l-11.75694,6.01239l5.34435,6.22352l-12.10357,22.98134h-18.28927l10.54375,-23.2681h-6.22982l-10.03641,23.2681h-17.92374z" fill="#777cbb" fill-rule="nonzero" stroke-miterlimit="10"/><path d="M377.04116,181.56517h-6.96719l-9.33056,21.80281h6.41889zM352.18804,169.77041h40.48598l7.63209,10.695l-11.31263,20.98666l-11.75694,6.01239l5.34435,6.22352l-12.10357,22.98134h-18.28927l10.54375,-23.2681h-6.22982l-10.03641,23.2681h-17.92374z" fill="none" fill-rule="nonzero" stroke-miterlimit="10"/><path d="M458.24472,178.54637l-12.28318,17.22103h-20.31862l9.10997,-14.23059h-5.97458l-12.39347,19.98775h14.12661l5.38216,8.30012c0,0 -13.38924,18.95418 -13.49953,18.95418c-0.11029,0 -14.45748,7.89047 -14.45748,7.89047h-21.72088l-5.7603,-7.22559l5.64371,-10.21603h19.81443l-5.16473,8.26232h4.41791l9.07846,-14.12661h-13.34827l-6.3086,-9.63307l13.1655,-24.00231l17.85126,-10.03326h27.84986z" fill="#777cbb" fill-rule="nonzero" stroke-miterlimit="10"/><path d="M458.24472,178.54637l-12.28318,17.22103h-20.31862l9.10997,-14.23059h-5.97458l-12.39347,19.98775h14.12661l5.38216,8.30012c0,0 -13.38924,18.95418 -13.49953,18.95418c-0.11029,0 -14.45748,7.89047 -14.45748,7.89047h-21.72088l-5.7603,-7.22559l5.64371,-10.21603h19.81443l-5.16473,8.26232h4.41791l9.07846,-14.12661h-13.34827l-6.3086,-9.63307l13.1655,-24.00231l17.85126,-10.03326h27.84986z" fill="none" fill-rule="nonzero" stroke-miterlimit="10"/><path d="M205.76198,194.8838v23.12314h6.37793zM186.28472,169.69665h32.2016l14.385,67.00921h-15.89755l-2.98729,-10.32317h-8.18354v10.32317h-17.11705z" fill="#777cbb" fill-rule="nonzero" stroke-miterlimit="10"/><path d="M205.76198,194.8838v23.12314h6.37793zM186.28472,169.69665h32.2016l14.385,67.00921h-15.89755l-2.98729,-10.32317h-8.18354v10.32317h-17.11705z" fill="none" fill-rule="nonzero" stroke-miterlimit="10"/><path d="M255.29081,228.70641h5.17104l3.31501,-46.62127h-6.19516zM236.29883,169.73263h37.91779c0,0 13.08988,11.24645 13.08988,11.36305c0,0.10399 -7.15311,48.2 -7.15311,48.2l-10.10259,7.37369h-32.23942z" fill="#777cbb" fill-rule="nonzero" stroke-miterlimit="10"/><path d="M255.29081,228.70641h5.17104l3.31501,-46.62127h-6.19516zM236.29883,169.73263h37.91779c0,0 13.08988,11.24645 13.08988,11.36305c0,0.10399 -7.15311,48.2 -7.15311,48.2l-10.10259,7.37369h-32.23942z" fill="none" fill-rule="nonzero" stroke-miterlimit="10"/><path d="M111.90749,64.97259h25.7449l15.87234,13.27895l4.30132,19.58756h-22.10532l-4.22254,-14.76314h-4.75193l6.22982,21.96036h16.0236l12.68653,10.6824l4.89374,22.32274l-9.27068,10.61622h-22.09901l-12.4691,-9.19821l-4.08074,-11.42922h21.06544l2.07976,7.19723h4.37695l-4.29502,-14.76629h-15.58559l-15.50996,-14.83561l-9.1919,-25.73859z" fill="#777cbb" fill-rule="nonzero" stroke-miterlimit="10"/><path d="M111.90749,64.97259h25.7449l15.87234,13.27895l4.30132,19.58756h-22.10532l-4.22254,-14.76314h-4.75193l6.22982,21.96036h16.0236l12.68653,10.6824l4.89374,22.32274l-9.27068,10.61622h-22.09901l-12.4691,-9.19821l-4.08074,-11.42922h21.06544l2.07976,7.19723h4.37695l-4.29502,-14.76629h-15.58559l-15.50996,-14.83561l-9.1919,-25.73859z" fill="none" fill-rule="nonzero" stroke-miterlimit="10"/><path d="M189.77525,110.86438h5.04814l-3.64273,-27.74588h-5.3349zM159.58408,65.16953h39.465l15.43118,13.72326l2.37597,33.38014l-10.16876,14.2432h-15.35555l3.78138,22.25972h-18.83442z" fill="#777cbb" fill-rule="nonzero" stroke-miterlimit="10"/><path d="M189.77525,110.86438h5.04814l-3.64273,-27.74588h-5.3349zM159.58408,65.16953h39.465l15.43118,13.72326l2.37597,33.38014l-10.16876,14.2432h-15.35555l3.78138,22.25972h-18.83442z" fill="none" fill-rule="nonzero" stroke-miterlimit="10"/><path d="M240.23084,122.09631h6.1542c0,0 -2.67218,-33.74882 -2.89276,-33.74882zM227.69241,64.97226h32.27093l7.04597,83.69139h-18.3586l-1.2258,-13.18126h-8.23395l-1.40856,13.18126h-18.40272z" fill="#777cbb" fill-rule="nonzero" stroke-miterlimit="10"/><path d="M240.23084,122.09631h6.1542c0,0 -2.67218,-33.74882 -2.89276,-33.74882zM227.69241,64.97226h32.27093l7.04597,83.69139h-18.3586l-1.2258,-13.18126h-8.23395l-1.40856,13.18126h-18.40272z" fill="none" fill-rule="nonzero" stroke-miterlimit="10"/><path d="M293.04947,65.0126h26.62407l12.39032,14.114l-4.73303,18.71153h-24.49704l2.52407,-15.3524h-4.89058l-7.82746,52.81642h4.58807l2.76986,-18.46889h22.71034l-5.41683,21.81856l-13.16235,11.05739h-21.99818l-9.75596,-12.09411l5.39162,-58.95171z" fill="#777cbb" fill-rule="nonzero" stroke-miterlimit="10"/><path d="M293.04947,65.0126h26.62407l12.39032,14.114l-4.73303,18.71153h-24.49704l2.52407,-15.3524h-4.89058l-7.82746,52.81642h4.58807l2.76986,-18.46889h22.71034l-5.41683,21.81856l-13.16235,11.05739h-21.99818l-9.75596,-12.09411l5.39162,-58.95171z" fill="none" fill-rule="nonzero" stroke-miterlimit="10"/><path d="M342.31076,65.0126h48.48044l-6.27079,17.51094h-23.70295l-5.01033,16.49942h15.98894l-5.26557,15.43433h-14.72848l-5.8958,20.76923h19.42999l-4.82126,13.39238h-38.61419z" fill="#777cbb" fill-rule="nonzero" stroke-miterlimit="10"/><path d="M342.31076,65.0126h48.48044l-6.27079,17.51094h-23.70295l-5.01033,16.49942h15.98894l-5.26557,15.43433h-14.72848l-5.8958,20.76923h19.42999l-4.82126,13.39238h-38.61419z" fill="none" fill-rule="nonzero" stroke-miterlimit="10"/><path d="M11.03698,180.4295h22.77021l45.22215,70.79689h-17.85442z" fill="#221815" fill-rule="nonzero" stroke-miterlimit="10"/><path d="M11.03698,180.4295h22.77021l45.22215,70.79689h-17.85442z" fill="none" fill-rule="nonzero" stroke-miterlimit="4"/><path d="M43.3577,180.4295c0,0 18.24201,-0.11659 18.24201,0c0,0.11659 28.69437,32.28038 28.69437,32.39697c0,0.11344 -15.55093,-32.35917 -15.55093,-32.35917h23.23028c0,0 31.34764,70.75908 31.2279,70.75908h-12.66762l-26.23963,-27.75533l14.69696,27.75534h-18.63275z" fill="#221815" fill-rule="nonzero" stroke-miterlimit="10"/><path d="M43.3577,180.4295c0,0 18.24201,-0.11659 18.24201,0c0,0.11659 28.69437,32.28038 28.69437,32.39697c0,0.11344 -15.55093,-32.35917 -15.55093,-32.35917h23.23028c0,0 31.34764,70.75908 31.2279,70.75908h-12.66762l-26.23963,-27.75533l14.69696,27.75534h-18.63275z" fill="none" fill-rule="nonzero" stroke-miterlimit="4"/><path d="M103.08175,180.4295h23.66514l26.51378,53.0181l-9.98284,-53.0181h24.98862l6.82539,70.79689h-31.69742z" fill="#221815" fill-rule="nonzero" stroke-miterlimit="10"/><path d="M103.08175,180.4295h23.66514l26.51378,53.0181l-9.98284,-53.0181h24.98862l6.82539,70.79689h-31.69742z" fill="none" fill-rule="nonzero" stroke-miterlimit="4"/><path d="M299.53011,180.46665h50.6831l-4.33283,13.02371h-24.98232l-4.37065,17.46681h20.47302l-4.02087,11.30633h-19.33546l-5.14583,20.46672h21.04968l-2.84549,8.45769h-39.56899z" fill="#221815" fill-rule="nonzero" stroke-miterlimit="10"/><path d="M299.53011,180.46665h50.6831l-4.33283,13.02371h-24.98232l-4.37065,17.46681h20.47302l-4.02087,11.30633h-19.33546l-5.14583,20.46672h21.04968l-2.84549,8.45769h-39.56899z" fill="none" fill-rule="nonzero" stroke-miterlimit="4"/><path d="M383.62643,192.94173h-7.37054l-9.8694,23.0412h6.79073zM357.35214,180.46633h42.95333l7.60688,11.30948l-11.6561,22.18094l-14.06988,6.35272l7.28231,6.59536l-12.78422,24.28276h-19.33231l11.14877,-24.59788h-6.58905l-10.60992,24.59788h-18.94471z" fill="#221815" fill-rule="nonzero" stroke-miterlimit="10"/><path d="M383.62643,192.94173h-7.37054l-9.8694,23.0412h6.79073zM357.35214,180.46633h42.95333l7.60688,11.30948l-11.6561,22.18094l-14.06988,6.35272l7.28231,6.59536l-12.78422,24.28276h-19.33231l11.14877,-24.59788h-6.58905l-10.60992,24.59788h-18.94471z" fill="none" fill-rule="nonzero" stroke-miterlimit="4"/><path d="M468.96304,189.74777l-12.98274,18.20419h-21.47509l9.62676,-15.04359h-6.3149l-13.09618,21.1253h14.92385l5.70043,8.77596c0,0 -14.15497,20.03501 -14.27156,20.03501c-0.11974,0 -15.27678,8.34425 -15.27678,8.34425h-22.96873l-6.08172,-7.64154l5.95882,-10.79899h20.93624l-5.45779,8.73499h4.68261l9.58895,-14.93331h-14.11085l-6.67098,-10.18136l13.91863,-25.37306l18.87224,-10.60363h29.43804z" fill="#221815" fill-rule="nonzero" stroke-miterlimit="10"/><path d="M468.96304,189.74777l-12.98274,18.20419h-21.47509l9.62676,-15.04359h-6.3149l-13.09618,21.1253h14.92385l5.70043,8.77596c0,0 -14.15497,20.03501 -14.27156,20.03501c-0.11974,0 -15.27678,8.34425 -15.27678,8.34425h-22.96873l-6.08172,-7.64154l5.95882,-10.79899h20.93624l-5.45779,8.73499h4.68261l9.58895,-14.93331h-14.11085l-6.67098,-10.18136l13.91863,-25.37306l18.87224,-10.60363h29.43804z" fill="none" fill-rule="nonzero" stroke-miterlimit="4"/><path d="M202.57679,207.02044v24.44032h6.74031zM181.98718,180.39321h34.03872l15.20745,70.83155h-16.80193l-3.15745,-10.91557h-8.65306v10.91557h-18.09705z" fill="#221815" fill-rule="nonzero" stroke-miterlimit="10"/><path d="M202.57679,207.02044v24.44032h6.74031zM181.98718,180.39321h34.03872l15.20745,70.83155h-16.80193l-3.15745,-10.91557h-8.65306v10.91557h-18.09705z" fill="none" fill-rule="nonzero" stroke-miterlimit="4"/><path d="M254.9341,242.76654h6.12268l3.50723,-49.27768h-7.21298zM234.85182,180.43049h40.08578c0,0 13.83355,11.88929 13.83355,12.00588c0,0.11974 -7.56276,50.95725 -7.56276,50.95725l-10.67925,7.79596h-34.07654z" fill="#221815" fill-rule="nonzero" stroke-miterlimit="10"/><path d="M254.9341,242.76654h6.12268l3.50723,-49.27768h-7.21298zM234.85182,180.43049h40.08578c0,0 13.83355,11.88929 13.83355,12.00588c0,0.11974 -7.56276,50.95725 -7.56276,50.95725l-10.67925,7.79596h-34.07654z" fill="none" fill-rule="nonzero" stroke-miterlimit="4"/><path d="M106.23921,75.94618h27.06208l16.68219,13.95645l4.5219,20.58331h-23.23028l-4.44942,-15.51311h-4.99142l6.55439,23.07902h16.83975l13.33252,11.22754l5.14268,23.46978l-9.7402,11.14247h-23.23973l-13.09933,-9.66143l-4.28556,-12.00903h22.13998l2.1869,7.56591h4.59753l-4.5219,-15.51311h-16.37968l-16.29145,-15.59819l-9.66458,-27.05892z" fill="#221815" fill-rule="nonzero" stroke-miterlimit="10"/><path d="M106.23921,75.94618h27.06208l16.68219,13.95645l4.5219,20.58331h-23.23028l-4.44942,-15.51311h-4.99142l6.55439,23.07902h16.83975l13.33252,11.22754l5.14268,23.46978l-9.7402,11.14247h-23.23973l-13.09933,-9.66143l-4.28556,-12.00903h22.13998l2.1869,7.56591h4.59753l-4.5219,-15.51311h-16.37968l-16.29145,-15.59819l-9.66458,-27.05892z" fill="none" fill-rule="nonzero" stroke-miterlimit="4"/><path d="M187.87668,124.05349h5.30339l-3.81604,-29.16389h-5.6185zM156.14145,76.0205h41.48174l16.21582,14.42912l2.49886,35.09121l-10.6824,14.96481h-16.14019l3.97675,23.39414h-19.81128z" fill="#221815" fill-rule="nonzero" stroke-miterlimit="10"/><path d="M187.87668,124.05349h5.30339l-3.81604,-29.16389h-5.6185zM156.14145,76.0205h41.48174l16.21582,14.42912l2.49886,35.09121l-10.6824,14.96481h-16.14019l3.97675,23.39414h-19.81128z" fill="none" fill-rule="nonzero" stroke-miterlimit="4"/><path d="M295.4774,75.98621h27.64189l12.78737,14.03208l-4.99457,20.50453h-23.38784l2.53668,-16.178h-6.78443l-8.22765,55.52326h5.81072l3.23308,-19.42054h21.98872l-5.38216,21.94776l-13.33252,11.53951h-23.11684l-10.25069,-12.70859l5.41683,-60.89282z" fill="#221815" fill-rule="nonzero" stroke-miterlimit="10"/><path d="M295.4774,75.98621h27.64189l12.78737,14.03208l-4.99457,20.50453h-23.38784l2.53668,-16.178h-6.78443l-8.22765,55.52326h5.81072l3.23308,-19.42054h21.98872l-5.38216,21.94776l-13.33252,11.53951h-23.11684l-10.25069,-12.70859l5.41683,-60.89282z" fill="none" fill-rule="nonzero" stroke-miterlimit="4"/><path d="M347.25271,75.98621h50.9541l-6.59221,18.40273h-24.90669l-5.26872,17.34708h16.80823l-5.53972,16.21582h-15.47845l-6.19831,21.83431h20.43206l-5.0765,14.07619h-40.57736z" fill="#221815" fill-rule="nonzero" stroke-miterlimit="10"/><path d="M347.25271,75.98621h50.9541l-6.59221,18.40273h-24.90669l-5.26872,17.34708h16.80823l-5.53972,16.21582h-15.47845l-6.19831,21.83431h20.43206l-5.0765,14.07619h-40.57736z" fill="none" fill-rule="nonzero" stroke-miterlimit="4"/><path d="M243.50488,100.5645l-3.54504,35.42208h6.47246zM226.78488,75.94773h33.91898l7.40835,87.95176h-19.29764l-1.28567,-15.36501h-8.65936l-1.48104,15.36501h-19.33231z" fill="#221815" fill-rule="nonzero" stroke-miterlimit="10"/><path d="M243.50488,100.5645l-3.54504,35.42208h6.47246zM226.78488,75.94773h33.91898l7.40835,87.95176h-19.29764l-1.28567,-15.36501h-8.65936l-1.48104,15.36501h-19.33231z" fill="none" fill-rule="nonzero" stroke-miterlimit="4"/><path d="M11.03698,180.4295h22.77021l45.22215,70.79689h-17.85442z" fill="#ffe200" fill-rule="nonzero" stroke-miterlimit="10"/><path d="M11.03698,180.4295h22.77021l45.22215,70.79689h-17.85442z" fill="none" fill-rule="nonzero" stroke-miterlimit="4"/><path d="M43.3577,180.4295c0,0 18.24201,-0.11659 18.24201,0c0,0.11659 28.69437,32.28038 28.69437,32.39697c0,0.11344 -15.55093,-32.35917 -15.55093,-32.35917h23.23028c0,0 31.34764,70.75908 31.2279,70.75908h-12.66762l-26.23963,-27.75533l14.69696,27.75534h-18.63275z" fill="#ffe200" fill-rule="nonzero" stroke-miterlimit="10"/><path d="M43.3577,180.4295c0,0 18.24201,-0.11659 18.24201,0c0,0.11659 28.69437,32.28038 28.69437,32.39697c0,0.11344 -15.55093,-32.35917 -15.55093,-32.35917h23.23028c0,0 31.34764,70.75908 31.2279,70.75908h-12.66762l-26.23963,-27.75533l14.69696,27.75534h-18.63275z" fill="none" fill-rule="nonzero" stroke-miterlimit="4"/><path d="M103.08175,180.4295h23.66514l26.51378,53.0181l-9.98284,-53.0181h24.98862l6.82539,70.79689h-31.69742z" fill="#ffe200" fill-rule="nonzero" stroke-miterlimit="10"/><path d="M103.08175,180.4295h23.66514l26.51378,53.0181l-9.98284,-53.0181h24.98862l6.82539,70.79689h-31.69742z" fill="none" fill-rule="nonzero" stroke-miterlimit="4"/><path d="M299.53011,180.46665h50.6831l-4.33283,13.02371h-24.98232l-4.37065,17.46681h20.47302l-4.02087,11.30633h-19.33546l-5.14583,20.46672h21.04968l-2.84549,8.45769h-39.56899z" fill="#ffe200" fill-rule="nonzero" stroke-miterlimit="10"/><path d="M299.53011,180.46665h50.6831l-4.33283,13.02371h-24.98232l-4.37065,17.46681h20.47302l-4.02087,11.30633h-19.33546l-5.14583,20.46672h21.04968l-2.84549,8.45769h-39.56899z" fill="none" fill-rule="nonzero" stroke-miterlimit="4"/><path d="M383.62643,192.94173h-7.37054l-9.8694,23.0412h6.79073zM357.35214,180.46633h42.95333l7.60688,11.30948l-11.6561,22.18094l-14.06988,6.35272l7.28231,6.59536l-12.78422,24.28276h-19.33231l11.14877,-24.59788h-6.58905l-10.60992,24.59788h-18.94471z" fill="#ffe200" fill-rule="nonzero" stroke-miterlimit="10"/><path d="M383.62643,192.94173h-7.37054l-9.8694,23.0412h6.79073zM357.35214,180.46633h42.95333l7.60688,11.30948l-11.6561,22.18094l-14.06988,6.35272l7.28231,6.59536l-12.78422,24.28276h-19.33231l11.14877,-24.59788h-6.58905l-10.60992,24.59788h-18.94471z" fill="none" fill-rule="nonzero" stroke-miterlimit="4"/><path d="M434.4633,180.38949h29.43804c-0.12289,0 5.06075,9.35892 5.06075,9.35892l-12.98274,18.20419h-21.47194l9.62361,-15.04359h-6.3149l-13.09618,21.12531h14.927l5.69728,8.77595c0,0 -14.15497,20.03186 -14.27156,20.03186c-0.11659,0 -15.27678,8.3474 -15.27678,8.3474h-22.96873l-6.08172,-7.64154l5.96198,-10.79899h20.93624l-5.46094,8.73499h4.68261l9.58895,-14.93645h-14.11085l-6.67098,-10.17821l13.91863,-25.37621z" fill="#ffe200" fill-rule="nonzero" stroke-miterlimit="10"/><path d="M434.4633,180.38949h29.43804c-0.12289,0 5.06075,9.35892 5.06075,9.35892l-12.98274,18.20419h-21.47194l9.62361,-15.04359h-6.3149l-13.09618,21.12531h14.927l5.69728,8.77595c0,0 -14.15497,20.03186 -14.27156,20.03186c-0.11659,0 -15.27678,8.3474 -15.27678,8.3474h-22.96873l-6.08172,-7.64154l5.96198,-10.79899h20.93624l-5.46094,8.73499h4.68261l9.58895,-14.93645h-14.11085l-6.67098,-10.17821l13.91863,-25.37621z" fill="none" fill-rule="nonzero" stroke-miterlimit="4"/><path d="M202.57679,207.02044v24.44032h6.74031zM181.98718,180.39321h34.03872l15.20745,70.83155h-16.80193l-3.15745,-10.91557h-8.65306v10.91557h-18.09705z" fill="#ffe200" fill-rule="nonzero" stroke-miterlimit="10"/><path d="M202.57679,207.02044v24.44032h6.74031zM181.98718,180.39321h34.03872l15.20745,70.83155h-16.80193l-3.15745,-10.91557h-8.65306v10.91557h-18.09705z" fill="none" fill-rule="nonzero" stroke-miterlimit="4"/><path d="M254.9341,242.76654h6.12268l3.50723,-49.27768h-7.21298zM234.85182,180.43049h40.08578c0,0 13.83355,11.88929 13.83355,12.00588c0,0.11974 -7.56276,50.95725 -7.56276,50.95725l-10.67925,7.79596h-34.07654z" fill="#ffe200" fill-rule="nonzero" stroke-miterlimit="10"/><path d="M254.9341,242.76654h6.12268l3.50723,-49.27768h-7.21298zM234.85182,180.43049h40.08578c0,0 13.83355,11.88929 13.83355,12.00588c0,0.11974 -7.56276,50.95725 -7.56276,50.95725l-10.67925,7.79596h-34.07654z" fill="none" fill-rule="nonzero" stroke-miterlimit="4"/><path d="M106.23921,75.94618h27.06208l16.68219,13.95645l4.5219,20.58331h-23.23028l-4.44942,-15.51311h-4.99142l6.55439,23.07902h16.83975l13.33252,11.22754l5.14268,23.46978l-9.7402,11.14247h-23.23973l-13.09933,-9.66143l-4.28556,-12.00903h22.13998l2.1869,7.56591h4.59753l-4.5219,-15.51311h-16.37968l-16.29145,-15.59819l-9.66458,-27.05892z" fill="#ffe200" fill-rule="nonzero" stroke-miterlimit="10"/><path d="M106.23921,75.94618h27.06208l16.68219,13.95645l4.5219,20.58331h-23.23028l-4.44942,-15.51311h-4.99142l6.55439,23.07902h16.83975l13.33252,11.22754l5.14268,23.46978l-9.7402,11.14247h-23.23973l-13.09933,-9.66143l-4.28556,-12.00903h22.13998l2.1869,7.56591h4.59753l-4.5219,-15.51311h-16.37968l-16.29145,-15.59819l-9.66458,-27.05892z" fill="none" fill-rule="nonzero" stroke-miterlimit="4"/><path d="M187.87668,124.05349h5.30339l-3.81604,-29.16389h-5.6185zM156.14145,76.0205h41.48174l16.21582,14.42912l2.49886,35.09121l-10.6824,14.96481h-16.14019l3.97675,23.39414h-19.81128z" fill="#ffe200" fill-rule="nonzero" stroke-miterlimit="10"/><path d="M187.87668,124.05349h5.30339l-3.81604,-29.16389h-5.6185zM156.14145,76.0205h41.48174l16.21582,14.42912l2.49886,35.09121l-10.6824,14.96481h-16.14019l3.97675,23.39414h-19.81128z" fill="none" fill-rule="nonzero" stroke-miterlimit="4"/><path d="M295.4774,75.98621h27.64189l12.78737,14.03208l-4.99457,20.50453h-23.38784l2.53668,-16.178h-6.78443l-8.22765,55.52326h5.81072l3.23308,-19.42054h21.98872l-5.38216,21.94776l-13.33252,11.53951h-23.11684l-10.25069,-12.70859l5.41683,-60.89282z" fill="#ffe200" fill-rule="nonzero" stroke-miterlimit="10"/><path d="M295.4774,75.98621h27.64189l12.78737,14.03208l-4.99457,20.50453h-23.38784l2.53668,-16.178h-6.78443l-8.22765,55.52326h5.81072l3.23308,-19.42054h21.98872l-5.38216,21.94776l-13.33252,11.53951h-23.11684l-10.25069,-12.70859l5.41683,-60.89282z" fill="none" fill-rule="nonzero" stroke-miterlimit="4"/><path d="M347.25271,75.98621h50.9541l-6.59221,18.40273h-24.90669l-5.26872,17.34708h16.80823l-5.53972,16.21582h-15.47845l-6.19831,21.83431h20.43206l-5.0765,14.07619h-40.57736z" fill="#ffe200" fill-rule="nonzero" stroke-miterlimit="10"/><path d="M347.25271,75.98621h50.9541l-6.59221,18.40273h-24.90669l-5.26872,17.34708h16.80823l-5.53972,16.21582h-15.47845l-6.19831,21.83431h20.43206l-5.0765,14.07619h-40.57736z" fill="none" fill-rule="nonzero" stroke-miterlimit="4"/><path d="M243.50488,100.5645l-3.54504,35.42208h6.47246zM226.78488,75.94773h33.91898l7.40835,87.95176h-19.29764l-1.28567,-15.36501h-8.65936l-1.48104,15.36501h-19.33231z" fill="#ffe200" fill-rule="nonzero" stroke-miterlimit="10"/><path d="M243.50488,100.5645l-3.54504,35.42208h6.47246zM226.78488,75.94773h33.91898l7.40835,87.95176h-19.29764l-1.28567,-15.36501h-8.65936l-1.48104,15.36501h-19.33231z" fill="none" fill-rule="nonzero" stroke-miterlimit="4"/><path d="M76.43927,269.74246c7.19954,0 14.39912,0 21.59866,0c6.24994,1.20711 10.37332,4.87234 12.37014,10.99568c1.12914,4.94551 1.26007,9.91976 0.3927,14.92271c-1.84225,6.5762 -6.09651,10.50323 -12.76284,11.78109c-7.19954,0 -14.39912,0 -21.59866,0c0,-12.56649 0,-25.13299 0,-37.69948zM88.22036,278.38193c3.02322,-0.0485 5.90303,0.54055 8.63946,1.76716c1.94474,2.5411 2.73015,5.42091 2.35622,8.63946c0.37079,3.23237 -0.41462,6.11222 -2.35622,8.63946c-2.74801,1.18435 -5.62786,1.64248 -8.63946,1.37446c0,-6.80683 0,-13.61371 0,-20.42055z" fill="#767bbb" fill-rule="evenodd" stroke-miterlimit="10" opacity="0.995"/><path d="M117.28037,269.74246c10.60298,0 21.20595,0 31.80893,0c0,2.74892 0,5.49784 0,8.24676c-6.54518,0 -13.08997,0 -19.63514,0c0,1.96351 0,3.92703 0,5.89055c6.02131,0 12.04302,0 18.06433,0c0,2.61803 0,5.23602 0,7.85405c-6.02131,0 -12.04302,0 -18.06433,0c0,2.35622 0,4.71244 0,7.06865c6.67595,0 13.3519,0 20.02785,0c0,2.87981 0,5.75965 0,8.63946c-10.73374,0 -21.46788,0 -32.20163,0c0,-12.56649 0,-25.13299 0,-37.69948z" fill="#767cba" fill-rule="evenodd" stroke-miterlimit="10" opacity="0.992"/><path d="M165.58281,269.74246c4.4505,0 8.9014,0 13.3519,0c4.78901,12.53413 9.50145,25.10062 14.1373,37.69948c-4.18896,0 -8.37753,0 -12.56649,0c-0.61615,-2.04488 -1.27078,-4.07382 -1.96352,-6.08689c-4.31777,-0.19628 -8.6375,-0.26174 -12.95919,-0.19635c-0.40016,2.1248 -0.92403,4.21924 -1.57081,6.28325c-4.18896,0 -8.37753,0 -12.56649,0c4.93235,-12.4828 9.64478,-25.0493 14.1373,-37.69948zM171.86606,280.73814c0.42648,0.04712 0.6884,0.30894 0.7854,0.78541c1.08897,3.76959 2.26708,7.50027 3.53432,11.19203c-2.61815,0.26182 -5.23591,0.26182 -7.85406,0c1.39135,-3.92883 2.56946,-7.92133 3.53433,-11.97744z" fill="#767bbb" fill-rule="evenodd" stroke-miterlimit="10" opacity="0.991"/><path d="M196.60634,269.74246c8.63946,0 17.27893,0 25.91839,0c7.22534,2.00599 9.90868,6.7184 8.05041,14.13731c-1.30966,3.66553 -3.86223,5.95628 -7.6577,6.8723c1.73417,0.94708 3.23941,2.19061 4.51609,3.73067c2.29574,4.33029 4.58638,8.65003 6.8723,12.9592c-4.58166,0 -9.16294,0 -13.7446,0c-2.54785,-4.57087 -5.10043,-9.15237 -7.6577,-13.7446c-1.07757,-0.88554 -2.32127,-1.40918 -3.73068,-1.57081c-0.39231,5.09842 -0.52307,10.20356 -0.3927,15.31541c-4.0578,0 -8.11599,0 -12.17379,0c0,-12.56649 0,-25.13299 0,-37.69948zM208.78013,277.59652c2.91425,-0.15335 5.79394,0.043 8.63946,0.58906c2.19128,2.15456 2.06051,4.11807 -0.3927,5.89054c-2.71397,0.54366 -5.46289,0.74001 -8.24676,0.58905c0,-2.35622 0,-4.71243 0,-7.06865z" fill="#777bbb" fill-rule="evenodd" stroke-miterlimit="10" opacity="0.987"/><path d="M251.19203,269.74246c3.92703,0 7.85406,0 11.78109,0c1.16672,6.68529 2.41042,13.36124 3.73068,20.02785c1.83981,-6.70717 3.73814,-13.38312 5.69419,-20.02785c3.79626,0 7.59212,0 11.38838,0c1.77934,6.59556 3.67727,13.14059 5.69419,19.63515c1.27,-6.54541 2.5133,-13.09048 3.73068,-19.63515c3.79626,0 7.59212,0 11.38838,0c-2.64878,12.59037 -5.3977,25.15686 -8.24676,37.69948c-3.92703,0 -7.85405,0 -11.78108,0c-2.27414,-7.54485 -4.43401,-15.13709 -6.4796,-22.77677c-2.163,7.60587 -4.32287,15.19815 -6.4796,22.77677c-3.92703,0 -7.85405,0 -11.78108,0c-2.82981,-12.57788 -5.70951,-25.14438 -8.63947,-37.69948z" fill="#767bba" fill-rule="evenodd" stroke-miterlimit="10" opacity="0.988"/><path d="M308.52664,269.74246c4.0578,0 8.11599,0 12.17379,0c0,12.56649 0,25.13299 0,37.69948c-4.0578,0 -8.11599,0 -12.17379,0c0,-12.56649 0,-25.13299 0,-37.69948z" fill="#777bba" fill-rule="evenodd" stroke-miterlimit="10" opacity="0.98"/><path d="M366.64667,269.74246c4.0578,0 8.11599,0 12.17379,0c0,4.31973 0,8.63947 0,12.9592c4.18896,0 8.37753,0 12.56649,0c0,-4.31973 0,-8.63947 0,-12.9592c4.0578,0 8.11598,0 12.17378,0c0,12.56649 0,25.13299 0,37.69948c-4.0578,0 -8.11598,0 -12.17378,0c0,-5.10514 0,-10.21027 0,-15.31541c-4.18896,0 -8.37753,0 -12.56649,0c0,5.10514 0,10.21027 0,15.31541c-4.0578,0 -8.11599,0 -12.17379,0c0,-12.56649 0,-25.13299 0,-37.69948z" fill="#777cbb" fill-rule="evenodd" stroke-miterlimit="10" opacity="0.993"/><path d="M325.80557,269.74246c12.04302,0 24.08564,0 36.12866,0c0,3.14162 0,6.28325 0,9.42487c-4.0578,0 -8.11599,0 -12.17379,0c0,9.42487 0,18.84974 0,28.27461c-3.92703,0 -7.85406,0 -11.78109,0c0,-9.42487 0,-18.84974 0,-28.27461c-4.0578,0 -8.11599,0 -12.17379,0c0,-3.14162 0,-6.28325 0,-9.42487z" fill="#767bbb" fill-rule="evenodd" stroke-miterlimit="10" opacity="0.995"/><path d="M161.85214,276.81937c4.71243,0 9.42487,0 14.1373,0c4.89701,13.38225 9.87137,26.73415 14.92271,40.05569c-4.4505,0 -8.9014,0 -13.3519,0c-0.53172,-2.12606 -1.18635,-4.2205 -1.96352,-6.28325c-4.57421,-0.39227 -9.15547,-0.52315 -13.7446,-0.3927c-0.52465,2.22769 -1.04812,4.45301 -1.57081,6.67595c-4.4505,0 -8.9014,0 -13.3519,0c5.19428,-13.26844 10.16825,-26.62035 14.92271,-40.05569zM168.52809,288.60046c1.81546,4.13728 3.2555,8.45701 4.31973,12.95919c-2.75206,0.06531 -5.50098,-0.00016 -8.24676,-0.19635c1.50601,-4.19139 2.81529,-8.4457 3.92703,-12.76284z" fill="#ffe200" fill-rule="evenodd" stroke-miterlimit="10" opacity="0.972"/><path d="M252.17379,276.81937c4.0578,0 8.11599,0 12.17379,0c1.05205,7.02718 2.42651,13.96491 4.12338,20.81325c1.96076,-6.92771 3.85909,-13.86544 5.69419,-20.81325c4.0578,0 8.11599,0 12.17379,0c1.7758,6.96435 3.67373,13.90208 5.69419,20.81325c1.62422,-6.86162 2.99868,-13.79934 4.12338,-20.81325c4.0578,0 8.11599,0 12.17379,0c-3.00417,13.32515 -5.88387,26.67705 -8.63946,40.05569c-4.18896,0 -8.37753,0 -12.56649,0c-2.34875,-7.95369 -4.63979,-15.93863 -6.8723,-23.95488c-2.23251,8.01625 -4.52355,16.00119 -6.8723,23.95488c-4.18896,0 -8.37753,0 -12.56649,0c-2.82981,-13.36293 -5.7095,-26.71483 -8.63946,-40.05569z" fill="#ffe200" fill-rule="evenodd" stroke-miterlimit="10" opacity="0.97"/><path d="M312.25732,276.81937c4.31973,0 8.63947,0 12.9592,0c0,13.3519 0,26.7038 0,40.05569c-4.31973,0 -8.63947,0 -12.9592,0c0,-13.3519 0,-26.7038 0,-40.05569z" fill="#ffe100" fill-rule="evenodd" stroke-miterlimit="10" opacity="0.971"/><path d="M373.91167,276.81937c4.18896,0 8.37753,0 12.56649,0c0,4.71244 0,9.42487 0,14.1373c4.31973,0 8.63946,0 12.95919,0c0,-4.71244 0,-9.42487 0,-14.1373c4.31973,0 8.63947,0 12.9592,0c0,13.3519 0,26.7038 0,40.05569c-4.31973,0 -8.63947,0 -12.9592,0c0,-5.36695 0,-10.73387 0,-16.10082c-4.31973,0 -8.63946,0 -12.95919,0c0,5.36695 0,10.73387 0,16.10082c-4.18896,0 -8.37753,0 -12.56649,0c0,-13.3519 0,-26.7038 0,-40.05569z" fill="#ffe200" fill-rule="evenodd" stroke-miterlimit="10" opacity="0.968"/><path d="M67.60346,277.21207c7.85515,-0.06543 15.70922,0.00002 23.56217,0.19636c6.31054,1.07339 10.43392,4.67316 12.37014,10.79933c1.89444,6.45662 1.76355,12.87076 -0.3927,19.24244c-2.65506,5.34244 -6.90937,8.48407 -12.76284,9.42487c-7.59224,0 -15.18452,0 -22.77676,0c0,-13.22101 0,-26.44198 0,-39.66299zM80.56265,286.24424c8.26985,-0.82778 12.06599,2.9029 11.38838,11.19203c0.56467,8.1379 -3.23147,11.60676 -11.38838,10.40663c0,-7.19954 0,-14.39911 0,-21.59866z" fill="#ffe200" fill-rule="evenodd" stroke-miterlimit="10" opacity="0.976"/><path d="M144.96592,316.87506c-11.38838,0 -22.77677,0 -34.16515,0c0,-13.22101 0,-26.44198 0,-39.66299c11.12645,0 22.25329,0 33.37975,0c0,2.87982 0,5.75966 0,8.63947c-6.93788,0 -13.87537,0 -20.81325,0c0,1.96351 0,3.92703 0,5.89054c6.41402,0 12.82842,0 19.24244,0c0,2.74892 0,5.49784 0,8.24676c-6.41402,0 -12.82842,0 -19.24244,0c0,2.61803 0,5.23603 0,7.85406c7.19942,0 14.39924,0 21.59866,0c0,3.01074 0,6.02143 0,9.03217z" fill="#ffe100" fill-rule="evenodd" stroke-miterlimit="10" opacity="0.983"/><path d="M234.10946,316.87506c-4.84321,0 -9.6868,0 -14.53,0c-2.32009,-4.61736 -4.74149,-9.19891 -7.265,-13.7446c-1.15023,-1.45878 -2.65546,-2.24418 -4.51609,-2.35622c-0.39231,5.36055 -0.52347,10.72751 -0.3927,16.10082c-4.31973,0 -8.63947,0 -12.95919,0c0,-13.22101 0,-26.44198 0,-39.66299c9.03295,-0.06543 18.06511,0.00002 27.0965,0.19636c7.89529,1.83947 10.84056,6.74824 8.83581,14.72635c-1.4797,3.96634 -4.29381,6.38802 -8.44311,7.265c1.96194,0.78006 3.59834,2.02364 4.90879,3.73068c2.6319,4.47839 5.0533,9.05993 7.265,13.7446zM207.40567,285.45883c3.03874,-0.13984 6.04958,0.05651 9.03216,0.58905c1.68391,1.48096 2.01103,3.24813 0.98176,5.30149c-0.35461,0.47179 -0.8125,0.79907 -1.37446,0.98176c-2.85142,0.52936 -5.73111,0.72571 -8.63946,0.58905c0,-2.4871 0,-4.97425 0,-7.46135z" fill="#ffe200" fill-rule="evenodd" stroke-miterlimit="10" opacity="0.969"/><path d="M356.24004,316.87506c-4.31973,0 -8.63947,0 -12.9592,0c0,-9.94846 0,-19.89696 0,-29.84542c-4.18896,0 -8.37753,0 -12.56649,0c0,-3.27251 0,-6.54505 0,-9.81757c12.69726,0 25.39492,0 38.09217,0c0,3.27252 0,6.54506 0,9.81757c-4.18896,0 -8.37753,0 -12.56649,0c0,9.94846 0,19.89696 0,29.84542z" fill="#ffe100" fill-rule="evenodd" stroke-miterlimit="10" opacity="0.98"/></g></g></svg>